<svg width="206" height="174" viewBox="0 0 206 174" fill="none" xmlns="http://www.w3.org/2000/svg">
<path d="M7.5741 79.9736V81.7593" stroke="#D2D8DF" stroke-width="2.921" stroke-linecap="round"/>
<path d="M3.66382 80.9414L5.08647 82.4435" stroke="#D2D8DF" stroke-width="2.921" stroke-linecap="round"/>
<path d="M2 84.9399H4.01162" stroke="#D2D8DF" stroke-width="2.921" stroke-linecap="round"/>
<path d="M3.5011 89.0094L4.92375 87.5073" stroke="#D2D8DF" stroke-width="2.921" stroke-linecap="round"/>
<path d="M7.5741 89.4976V87.7119" stroke="#D2D8DF" stroke-width="2.921" stroke-linecap="round"/>
<path d="M10.4757 88.3071L9.31506 87.1167" stroke="#D2D8DF" stroke-width="2.921" stroke-linecap="round"/>
<path d="M12.797 85.3311H11.056" stroke="#D2D8DF" stroke-width="2.921" stroke-linecap="round"/>
<path d="M11.6364 81.1641L10.4757 82.3545" stroke="#D2D8DF" stroke-width="2.921" stroke-linecap="round"/>
<path d="M101.008 2V3.19044" stroke="#D2D8DF" stroke-width="2.921" stroke-linecap="round"/>
<path d="M97.5264 5.57129H98.687" stroke="#D2D8DF" stroke-width="2.921" stroke-linecap="round"/>
<path d="M101.008 9.14259V7.95215" stroke="#D2D8DF" stroke-width="2.921" stroke-linecap="round"/>
<path d="M103.91 5.57129H102.749" stroke="#D2D8DF" stroke-width="2.921" stroke-linecap="round"/>
<path d="M33.6892 51.9985V53.7842" stroke="#D2D8DF" stroke-width="2.921" stroke-linecap="round"/>
<path d="M28.4662 57.3555H30.2072" stroke="#D2D8DF" stroke-width="2.921" stroke-linecap="round"/>
<path d="M33.6892 62.1172V60.3315" stroke="#D2D8DF" stroke-width="2.921" stroke-linecap="round"/>
<path d="M38.332 57.3555H36.5909" stroke="#D2D8DF" stroke-width="2.921" stroke-linecap="round"/>
<path d="M158.609 116.9C159.996 116.9 161.121 118.054 161.121 119.477C161.121 120.901 159.996 122.054 158.609 122.054C157.222 122.054 156.098 120.901 156.098 119.477" stroke="#D2D8DF" stroke-width="2.921" stroke-linecap="round"/>
<path fill-rule="evenodd" clip-rule="evenodd" d="M170.104 93.5231C171.596 93.046 173.882 91.1753 174.411 89.1626C174.891 90.9418 176.903 93.046 178.718 93.2052C176.674 93.9472 174.721 96.1514 174.411 97.8831C174.2 96.1181 171.498 93.7804 170.104 93.5231Z" fill="#EBECEE"/>
<path fill-rule="evenodd" clip-rule="evenodd" d="M17.0178 116.107C17.7637 115.868 18.9063 114.933 19.1708 113.927C19.4108 114.816 20.4163 115.868 21.3239 115.948C20.3025 116.319 19.326 117.421 19.1708 118.287C19.0654 117.404 17.7145 116.235 17.0178 116.107Z" fill="#EBECEE"/>
<path fill-rule="evenodd" clip-rule="evenodd" d="M30.8601 33.3066C30.8601 34.4105 29.9881 35.3047 28.9125 35.3047C27.8365 35.3047 26.965 34.4105 26.965 33.3066C26.965 32.2032 27.8365 31.3086 28.9125 31.3086C29.9881 31.3086 30.8601 32.2032 30.8601 33.3066Z" fill="#D1D8DF"/>
<path fill-rule="evenodd" clip-rule="evenodd" d="M160.91 38.672C160.91 40.5164 159.452 42.0115 157.655 42.0115C155.857 42.0115 154.399 40.5164 154.399 38.672C154.399 36.8276 155.857 35.3325 157.655 35.3325C159.452 35.3325 160.91 36.8276 160.91 38.672Z" fill="#EBECEE"/>
<path fill-rule="evenodd" clip-rule="evenodd" d="M206 29.6237C206 31.0869 204.844 32.2727 203.418 32.2727C201.992 32.2727 200.836 31.0869 200.836 29.6237C200.836 28.1604 201.992 26.9746 203.418 26.9746C204.844 26.9746 206 28.1604 206 29.6237Z" fill="#EBECEE"/>
<path fill-rule="evenodd" clip-rule="evenodd" d="M67.2584 153.345C67.2584 154.268 66.5298 155.015 65.6306 155.015C64.732 155.015 64.0033 154.268 64.0033 153.345C64.0033 152.423 64.732 151.675 65.6306 151.675C66.5298 151.675 67.2584 152.423 67.2584 153.345Z" stroke="#D2D8DF" stroke-width="2.921" stroke-linecap="round"/>
<path fill-rule="evenodd" clip-rule="evenodd" d="M66.2899 20.4707C66.2899 21.5746 65.4179 22.4687 64.3423 22.4687C63.2668 22.4687 62.3948 21.5746 62.3948 20.4707C62.3948 19.3673 63.2668 18.4727 64.3423 18.4727C65.4179 18.4727 66.2899 19.3673 66.2899 20.4707Z" stroke="#D2D8DF" stroke-width="2.921" stroke-linecap="round"/>
<path fill-rule="evenodd" clip-rule="evenodd" d="M115.969 171.837C114.724 172.323 113.332 171.682 112.858 170.406C112.385 169.129 113.009 167.699 114.254 167.214C115.498 166.728 116.891 167.369 117.365 168.646C117.839 169.923 117.213 171.352 115.969 171.837Z" stroke="#D2D8DF" stroke-width="2.921" stroke-linecap="round"/>
<path fill-rule="evenodd" clip-rule="evenodd" d="M115.227 124.615H67.6369C64.2873 124.615 61.5454 121.795 61.5454 118.348V48.7413C61.5454 45.2942 64.2873 42.4751 67.6369 42.4751H115.227C118.578 42.4751 121.32 45.2942 121.32 48.7413V118.348C121.32 121.795 118.578 124.615 115.227 124.615Z" fill="#E0E2EE"/>
<path fill-rule="evenodd" clip-rule="evenodd" d="M111.165 127.592H63.5745C60.2249 127.592 57.483 124.771 57.483 121.324V51.7173C57.483 48.2702 60.2249 45.4512 63.5745 45.4512H111.165C114.516 45.4512 117.258 48.2702 117.258 51.7173V121.324C117.258 124.771 114.516 127.592 111.165 127.592Z" fill="#E8EBF2"/>
<path fill-rule="evenodd" clip-rule="evenodd" d="M107.213 129.941H59.5245C56.1679 129.941 53.4204 127.132 53.4204 123.699V54.3809C53.4204 50.948 56.1679 48.1406 59.5245 48.1406H107.213C110.571 48.1406 113.319 50.948 113.319 54.3809V123.699C113.319 127.132 110.571 129.941 107.213 129.941Z" fill="#D8DBEA"/>
<path fill-rule="evenodd" clip-rule="evenodd" d="M107.213 129.941H59.5245C56.1679 129.941 53.4204 127.132 53.4204 123.699V54.3809C53.4204 50.948 56.1679 48.1406 59.5245 48.1406H107.213C110.571 48.1406 113.319 50.948 113.319 54.3809V123.699C113.319 127.132 110.571 129.941 107.213 129.941Z" fill="#F1F2F7"/>
<path fill-rule="evenodd" clip-rule="evenodd" d="M100.34 69.2598H65.1157C64.1098 69.2598 63.2864 68.4564 63.2864 67.4748C63.2864 66.4919 64.1098 65.6885 65.1157 65.6885H100.34C101.346 65.6885 102.169 66.4919 102.169 67.4748C102.169 68.4564 101.346 69.2598 100.34 69.2598Z" fill="#E0E2EE"/>
<path fill-rule="evenodd" clip-rule="evenodd" d="M100.34 79.9742H65.1157C64.1098 79.9742 63.2864 79.1707 63.2864 78.1892C63.2864 77.2063 64.1098 76.4028 65.1157 76.4028H100.34C101.346 76.4028 102.169 77.2063 102.169 78.1892C102.169 79.1707 101.346 79.9742 100.34 79.9742Z" fill="#E0E2EE"/>
<path fill-rule="evenodd" clip-rule="evenodd" d="M100.34 90.688H65.1157C64.1098 90.688 63.2864 89.8846 63.2864 88.903C63.2864 87.9215 64.1098 87.1167 65.1157 87.1167H100.34C101.346 87.1167 102.169 87.9215 102.169 88.903C102.169 89.8846 101.346 90.688 100.34 90.688Z" fill="#E0E2EE"/>
<path fill-rule="evenodd" clip-rule="evenodd" d="M100.34 101.402H65.1157C64.1098 101.402 63.2864 100.598 63.2864 99.6169C63.2864 98.634 64.1098 97.8306 65.1157 97.8306H100.34C101.346 97.8306 102.169 98.634 102.169 99.6169C102.169 100.598 101.346 101.402 100.34 101.402Z" fill="#E0E2EE"/>
<path fill-rule="evenodd" clip-rule="evenodd" d="M83.502 112.116H65.1235C64.1133 112.116 63.2864 111.312 63.2864 110.331C63.2864 109.348 64.1133 108.544 65.1235 108.544H83.502C84.5123 108.544 85.3392 109.348 85.3392 110.331C85.3392 111.312 84.5123 112.116 83.502 112.116Z" fill="#E0E2EE"/>
<path fill-rule="evenodd" clip-rule="evenodd" d="M120.598 98.2689C113.554 105.492 102.65 106.307 94.734 100.73C93.7223 100.005 92.7593 99.1898 91.8614 98.2689C91.3991 97.7964 90.9634 97.3087 90.5528 96.7953C89.7317 95.77 89.0124 94.6765 88.4231 93.5466C87.3849 91.6383 86.6789 89.6134 86.2934 87.5203C85.0499 80.9564 86.9093 73.8911 91.8614 68.8144C96.8253 63.7226 103.715 61.8279 110.116 63.091C112.156 63.4984 114.132 64.2224 115.993 65.275C117.096 65.8929 118.147 66.6305 119.149 67.4725C119.648 67.8921 120.124 68.3404 120.584 68.8144C121.484 69.7353 122.29 70.7212 122.984 71.7602C128.424 79.8765 127.628 91.0598 120.598 98.2689Z" fill="white" fill-opacity="0.1"/>
<path fill-rule="evenodd" clip-rule="evenodd" d="M118.627 96.8463C111.299 104.363 99.4239 104.362 92.0949 96.8463C84.7754 89.339 84.7754 77.158 92.1044 69.6424C99.4239 62.1352 111.299 62.1352 118.619 69.6424C125.946 77.158 125.946 89.339 118.627 96.8463ZM122.387 65.7811C112.982 56.1342 97.7399 56.1342 88.3342 65.7811C78.9299 75.4266 78.9217 91.069 88.326 100.716C96.8864 109.493 110.304 110.285 119.741 103.078C120.662 102.373 121.55 101.583 122.397 100.716C123.242 99.8475 124.013 98.937 124.699 97.9916C131.725 88.3111 130.946 74.5596 122.387 65.7811Z" fill="#E0E2EE"/>
<path fill-rule="evenodd" clip-rule="evenodd" d="M159.403 137.08L159.008 137.485C156.396 140.166 152.118 140.166 149.504 137.485L125.383 112.745L135.282 102.592L159.403 127.332C162.017 130.013 162.017 134.4 159.403 137.08Z" fill="#1B346D"/>
<path fill-rule="evenodd" clip-rule="evenodd" d="M125.218 97.2354L132.347 104.546L127.286 109.735L120.159 102.424C121.1 101.705 122.004 100.899 122.87 100.014C123.732 99.1291 124.519 98.2 125.218 97.2354Z" fill="#E0E2EE"/>
<path fill-rule="evenodd" clip-rule="evenodd" d="M159.042 127.028L149.206 137.115L147.435 135.297L157.27 125.21L159.042 127.028Z" fill="#1B346D"/>
<path fill-rule="evenodd" clip-rule="evenodd" d="M135.829 102.942L125.723 113.306L124.222 111.767L134.327 101.402L135.829 102.942Z" fill="#1B346D"/>
<path fill-rule="evenodd" clip-rule="evenodd" d="M113.776 67.0567L88.9933 92.4734C88.06 90.7578 87.4254 88.9374 87.0802 87.0556L108.493 65.0933C110.327 65.4609 112.103 66.1104 113.776 67.0567Z" fill="white" fill-opacity="0.5"/>
<path fill-rule="evenodd" clip-rule="evenodd" d="M121.9 73.098L95.1079 99.0208C94.1485 98.3729 93.2352 97.6438 92.3836 96.8198C91.9452 96.3956 91.5306 95.9605 91.1426 95.5011L118.261 69.2598C118.736 69.6365 119.187 70.0377 119.624 70.4619C120.476 71.2859 121.242 72.1682 121.9 73.098Z" fill="white" fill-opacity="0.5"/>
</svg>
